<?xml version="1.0" encoding="UTF-8" standalone="no"?>
<!-- Created with Inkscape (http://www.inkscape.org/) -->

<svg
   width="44mm"
   height="10mm"
   viewBox="0 0 44 10"
   version="1.1"
   id="svg1287"
   inkscape:version="1.1.2 (0a00cf5339, 2022-02-04)"
   sodipodi:docname="komoe.svg"
   xmlns:inkscape="http://www.inkscape.org/namespaces/inkscape"
   xmlns:sodipodi="http://sodipodi.sourceforge.net/DTD/sodipodi-0.dtd"
   xmlns="http://www.w3.org/2000/svg"
   xmlns:svg="http://www.w3.org/2000/svg">
  <sodipodi:namedview
     id="namedview1289"
     pagecolor="#505050"
     bordercolor="#eeeeee"
     borderopacity="1"
     inkscape:pageshadow="0"
     inkscape:pageopacity="0"
     inkscape:pagecheckerboard="0"
     inkscape:document-units="mm"
     showgrid="true"
     inkscape:zoom="2.7194926"
     inkscape:cx="124.47175"
     inkscape:cy="-40.816438"
     inkscape:window-width="1896"
     inkscape:window-height="915"
     inkscape:window-x="12"
     inkscape:window-y="44"
     inkscape:window-maximized="0"
     inkscape:current-layer="layer1">
    <inkscape:grid
       type="xygrid"
       id="grid1348"
       units="mm"
       spacingx="1"
       spacingy="1"
       originx="1"
       originy="-1"
       empspacing="3" />
  </sodipodi:namedview>
  <defs
     id="defs1284" />
  <g
     inkscape:label="Calque 1"
     inkscape:groupmode="layer"
     id="layer1">
    <path
       style="fill:none;stroke:#000000;stroke-width:2;stroke-linecap:butt;stroke-linejoin:miter;stroke-miterlimit:4;stroke-dasharray:none;stroke-opacity:1"
       d="M 7,0 V 2 A 3,3 0 0 1 4,5 H 1 V 0 10 5 h 3 a 3,3 0 0 1 3,3 v 2"
       id="path1383" />
    <path
       style="fill:none;stroke:#000000;stroke-width:2;stroke-linecap:butt;stroke-linejoin:miter;stroke-miterlimit:4;stroke-dasharray:none;stroke-opacity:1"
       d="m 10,4 a 3,3 0 0 1 6,0 v 2 a 3,3 0 0 1 -6,0 z"
       id="path1501" />
    <path
       style="fill:none;stroke:#000000;stroke-width:2;stroke-linecap:butt;stroke-linejoin:miter;stroke-miterlimit:4;stroke-dasharray:none;stroke-opacity:1"
       d="M 19,10 V 0 a 3,3 0 0 0 6,0 v 10"
       id="path1503" />
    <path
       style="fill:none;stroke:#000000;stroke-width:2;stroke-linecap:butt;stroke-linejoin:miter;stroke-miterlimit:4;stroke-dasharray:none;stroke-opacity:1"
       d="m 28,4 a 3,3 0 0 1 6,0 v 2 a 3,3 0 0 1 -6,0 z"
       id="path1505" />
    <path
       style="fill:none;stroke:#000000;stroke-width:2;stroke-linecap:butt;stroke-linejoin:miter;stroke-miterlimit:4;stroke-dasharray:none;stroke-opacity:1"
       d="m 44,1 h -7 v 4 h 4 -4 v 4 h 7"
       id="path1507" />
  </g>
</svg>
